<svg id="visual" viewBox="0 0 1100 1000" width="1100" height="1000" xmlns="http://www.w3.org/2000/svg" xmlns:xlink="http://www.w3.org/1999/xlink" version="1.1"><g stroke-width="1" stroke-linejoin="bevel"><path d="M514.9 462.4L640.1 519.6L586.1 419.4Z" fill="#1e6085" stroke="#1e6085"></path><path d="M514.9 462.4L471.9 583.6L640.1 519.6Z" fill="#25749b" stroke="#25749b"></path><path d="M764.3 455.4L619.1 343.3L586.1 419.4Z" fill="#0d3b59" stroke="#0d3b59"></path><path d="M448.9 313.3L405.7 430.4L514.9 462.4Z" fill="#297ea6" stroke="#297ea6"></path><path d="M711.3 662.7L740.3 524.6L640.1 519.6Z" fill="#164d6f" stroke="#164d6f"></path><path d="M640.1 519.6L764.3 455.4L586.1 419.4Z" fill="#226a90" stroke="#226a90"></path><path d="M471.9 583.6L607.1 665.7L640.1 519.6Z" fill="#164d6f" stroke="#164d6f"></path><path d="M477.9 631.7L607.1 665.7L471.9 583.6Z" fill="#0d3b59" stroke="#0d3b59"></path><path d="M448.9 313.3L514.9 462.4L586.1 419.4Z" fill="#08324f" stroke="#08324f"></path><path d="M514.9 462.4L405.7 430.4L471.9 583.6Z" fill="#1e6085" stroke="#1e6085"></path><path d="M471.9 583.6L370.7 588.6L477.9 631.7Z" fill="#042944" stroke="#042944"></path><path d="M740.3 524.6L764.3 455.4L640.1 519.6Z" fill="#042944" stroke="#042944"></path><path d="M619.1 343.3L448.9 313.3L586.1 419.4Z" fill="#08324f" stroke="#08324f"></path><path d="M764.3 455.4L746.3 348.3L619.1 343.3Z" fill="#1a567a" stroke="#1a567a"></path><path d="M619.1 343.3L620.1 250.2L448.9 313.3Z" fill="#226a90" stroke="#226a90"></path><path d="M607.1 665.7L711.3 662.7L640.1 519.6Z" fill="#124464" stroke="#124464"></path><path d="M740.3 524.6L826.6 553.6L764.3 455.4Z" fill="#042944" stroke="#042944"></path><path d="M405.7 430.4L370.7 588.6L471.9 583.6Z" fill="#1e6085" stroke="#1e6085"></path><path d="M714.3 243.2L620.1 250.2L619.1 343.3Z" fill="#124464" stroke="#124464"></path><path d="M711.3 662.7L826.6 553.6L740.3 524.6Z" fill="#08324f" stroke="#08324f"></path><path d="M764.3 455.4L844.6 453.4L746.3 348.3Z" fill="#01213a" stroke="#01213a"></path><path d="M386.7 247.2L388.7 308.3L448.9 313.3Z" fill="#0d3b59" stroke="#0d3b59"></path><path d="M448.9 313.3L388.7 308.3L405.7 430.4Z" fill="#01213a" stroke="#01213a"></path><path d="M405.7 430.4L281.4 443.4L370.7 588.6Z" fill="#1e6085" stroke="#1e6085"></path><path d="M370.7 588.6L381.7 667.7L477.9 631.7Z" fill="#124464" stroke="#124464"></path><path d="M477.9 631.7L599.1 759.8L607.1 665.7Z" fill="#25749b" stroke="#25749b"></path><path d="M826.6 553.6L844.6 453.4L764.3 455.4Z" fill="#124464" stroke="#124464"></path><path d="M451.9 779.8L599.1 759.8L477.9 631.7Z" fill="#25749b" stroke="#25749b"></path><path d="M607.1 665.7L599.1 759.8L711.3 662.7Z" fill="#08324f" stroke="#08324f"></path><path d="M836.6 310.3L714.3 243.2L746.3 348.3Z" fill="#226a90" stroke="#226a90"></path><path d="M746.3 348.3L714.3 243.2L619.1 343.3Z" fill="#226a90" stroke="#226a90"></path><path d="M620.1 250.2L476.9 222.2L448.9 313.3Z" fill="#297ea6" stroke="#297ea6"></path><path d="M481.9 123.1L476.9 222.2L620.1 250.2Z" fill="#0d3b59" stroke="#0d3b59"></path><path d="M388.7 308.3L281.4 443.4L405.7 430.4Z" fill="#1e6085" stroke="#1e6085"></path><path d="M370.7 588.6L225.4 674.7L381.7 667.7Z" fill="#1e6085" stroke="#1e6085"></path><path d="M476.9 222.2L386.7 247.2L448.9 313.3Z" fill="#25749b" stroke="#25749b"></path><path d="M388.7 308.3L257.4 340.3L281.4 443.4Z" fill="#124464" stroke="#124464"></path><path d="M844.6 453.4L836.6 310.3L746.3 348.3Z" fill="#0d3b59" stroke="#0d3b59"></path><path d="M727.3 766.8L840.6 664.7L711.3 662.7Z" fill="#08324f" stroke="#08324f"></path><path d="M711.3 662.7L840.6 664.7L826.6 553.6Z" fill="#25749b" stroke="#25749b"></path><path d="M965.8 472.4L937.8 372.3L844.6 453.4Z" fill="#297ea6" stroke="#297ea6"></path><path d="M599.1 759.8L727.3 766.8L711.3 662.7Z" fill="#08324f" stroke="#08324f"></path><path d="M381.7 667.7L451.9 779.8L477.9 631.7Z" fill="#0d3b59" stroke="#0d3b59"></path><path d="M599.1 759.8L637.1 922.9L727.3 766.8Z" fill="#0d3b59" stroke="#0d3b59"></path><path d="M225.4 674.7L389.7 755.8L381.7 667.7Z" fill="#164d6f" stroke="#164d6f"></path><path d="M381.7 667.7L389.7 755.8L451.9 779.8Z" fill="#1a567a" stroke="#1a567a"></path><path d="M281.4 443.4L240.4 546.6L370.7 588.6Z" fill="#08324f" stroke="#08324f"></path><path d="M386.7 247.2L257.4 340.3L388.7 308.3Z" fill="#25749b" stroke="#25749b"></path><path d="M281.4 443.4L120.2 465.4L240.4 546.6Z" fill="#164d6f" stroke="#164d6f"></path><path d="M965.8 472.4L844.6 453.4L826.6 553.6Z" fill="#226a90" stroke="#226a90"></path><path d="M844.6 453.4L937.8 372.3L836.6 310.3Z" fill="#297ea6" stroke="#297ea6"></path><path d="M476.9 222.2L348.7 145.1L386.7 247.2Z" fill="#1a567a" stroke="#1a567a"></path><path d="M386.7 247.2L209.4 247.2L257.4 340.3Z" fill="#1e6085" stroke="#1e6085"></path><path d="M629.1 73.1L481.9 123.1L620.1 250.2Z" fill="#1e6085" stroke="#1e6085"></path><path d="M727.3 766.8L846.6 759.8L840.6 664.7Z" fill="#164d6f" stroke="#164d6f"></path><path d="M840.6 664.7L954.8 576.6L826.6 553.6Z" fill="#1e6085" stroke="#1e6085"></path><path d="M949.8 648.7L954.8 576.6L840.6 664.7Z" fill="#25749b" stroke="#25749b"></path><path d="M954.8 576.6L965.8 472.4L826.6 553.6Z" fill="#124464" stroke="#124464"></path><path d="M860.6 185.2L760.3 135.1L714.3 243.2Z" fill="#25749b" stroke="#25749b"></path><path d="M714.3 243.2L629.1 73.1L620.1 250.2Z" fill="#164d6f" stroke="#164d6f"></path><path d="M860.6 185.2L714.3 243.2L836.6 310.3Z" fill="#124464" stroke="#124464"></path><path d="M133.2 588.6L225.4 674.7L240.4 546.6Z" fill="#0d3b59" stroke="#0d3b59"></path><path d="M240.4 546.6L225.4 674.7L370.7 588.6Z" fill="#124464" stroke="#124464"></path><path d="M846.6 759.8L949.8 648.7L840.6 664.7Z" fill="#164d6f" stroke="#164d6f"></path><path d="M1100 535.6L1100 465.4L965.8 472.4Z" fill="#1a567a" stroke="#1a567a"></path><path d="M481.9 123.1L348.7 145.1L476.9 222.2Z" fill="#01213a" stroke="#01213a"></path><path d="M970.8 227.2L860.6 185.2L836.6 310.3Z" fill="#0d3b59" stroke="#0d3b59"></path><path d="M403.7 923.9L451.9 779.8L389.7 755.8Z" fill="#042944" stroke="#042944"></path><path d="M403.7 923.9L483.9 893.9L451.9 779.8Z" fill="#297ea6" stroke="#297ea6"></path><path d="M451.9 779.8L483.9 893.9L599.1 759.8Z" fill="#1e6085" stroke="#1e6085"></path><path d="M727.3 766.8L771.3 901.9L846.6 759.8Z" fill="#226a90" stroke="#226a90"></path><path d="M760.3 135.1L629.1 73.1L714.3 243.2Z" fill="#1a567a" stroke="#1a567a"></path><path d="M261.4 0L246.4 139.1L348.7 145.1Z" fill="#1a567a" stroke="#1a567a"></path><path d="M483.9 893.9L637.1 922.9L599.1 759.8Z" fill="#226a90" stroke="#226a90"></path><path d="M348.7 145.1L209.4 247.2L386.7 247.2Z" fill="#297ea6" stroke="#297ea6"></path><path d="M257.4 340.3L161.2 340.3L281.4 443.4Z" fill="#01213a" stroke="#01213a"></path><path d="M209.4 247.2L161.2 340.3L257.4 340.3Z" fill="#1a567a" stroke="#1a567a"></path><path d="M860.6 185.2L837.6 121.1L760.3 135.1Z" fill="#124464" stroke="#124464"></path><path d="M743.3 0L635.1 0L629.1 73.1Z" fill="#1e6085" stroke="#1e6085"></path><path d="M1012.8 87.1L837.6 121.1L860.6 185.2Z" fill="#1a567a" stroke="#1a567a"></path><path d="M637.1 922.9L771.3 901.9L727.3 766.8Z" fill="#01213a" stroke="#01213a"></path><path d="M846.6 759.8L1001.8 774.8L949.8 648.7Z" fill="#01213a" stroke="#01213a"></path><path d="M120.2 465.4L133.2 588.6L240.4 546.6Z" fill="#0d3b59" stroke="#0d3b59"></path><path d="M161.2 340.3L120.2 465.4L281.4 443.4Z" fill="#124464" stroke="#124464"></path><path d="M0 692.7L135.2 632.7L133.2 588.6Z" fill="#297ea6" stroke="#297ea6"></path><path d="M133.2 588.6L135.2 632.7L225.4 674.7Z" fill="#1a567a" stroke="#1a567a"></path><path d="M231.4 900.9L403.7 923.9L389.7 755.8Z" fill="#124464" stroke="#124464"></path><path d="M218.4 790.8L389.7 755.8L225.4 674.7Z" fill="#164d6f" stroke="#164d6f"></path><path d="M506.9 1000L605.1 1000L637.1 922.9Z" fill="#042944" stroke="#042944"></path><path d="M1100 372.3L970.8 227.2L937.8 372.3Z" fill="#1a567a" stroke="#1a567a"></path><path d="M937.8 372.3L970.8 227.2L836.6 310.3Z" fill="#01213a" stroke="#01213a"></path><path d="M153.2 801.8L218.4 790.8L225.4 674.7Z" fill="#164d6f" stroke="#164d6f"></path><path d="M356.7 0L348.7 145.1L481.9 123.1Z" fill="#226a90" stroke="#226a90"></path><path d="M348.7 145.1L246.4 139.1L209.4 247.2Z" fill="#08324f" stroke="#08324f"></path><path d="M209.4 247.2L112.2 186.2L161.2 340.3Z" fill="#01213a" stroke="#01213a"></path><path d="M771.3 901.9L880.6 874.9L846.6 759.8Z" fill="#01213a" stroke="#01213a"></path><path d="M743.3 0L629.1 73.1L760.3 135.1Z" fill="#164d6f" stroke="#164d6f"></path><path d="M629.1 73.1L520.9 0L481.9 123.1Z" fill="#08324f" stroke="#08324f"></path><path d="M635.1 0L520.9 0L629.1 73.1Z" fill="#164d6f" stroke="#164d6f"></path><path d="M880.6 874.9L1001.8 774.8L846.6 759.8Z" fill="#124464" stroke="#124464"></path><path d="M1100 535.6L965.8 472.4L954.8 576.6Z" fill="#1e6085" stroke="#1e6085"></path><path d="M965.8 472.4L1100 372.3L937.8 372.3Z" fill="#042944" stroke="#042944"></path><path d="M506.9 1000L637.1 922.9L483.9 893.9Z" fill="#25749b" stroke="#25749b"></path><path d="M637.1 922.9L701.3 1000L771.3 901.9Z" fill="#297ea6" stroke="#297ea6"></path><path d="M771.3 901.9L866.6 1000L880.6 874.9Z" fill="#1a567a" stroke="#1a567a"></path><path d="M835.6 0L743.3 0L837.6 121.1Z" fill="#0d3b59" stroke="#0d3b59"></path><path d="M837.6 121.1L743.3 0L760.3 135.1Z" fill="#1e6085" stroke="#1e6085"></path><path d="M403.7 923.9L506.9 1000L483.9 893.9Z" fill="#01213a" stroke="#01213a"></path><path d="M389.7 1000L506.9 1000L403.7 923.9Z" fill="#226a90" stroke="#226a90"></path><path d="M1100 535.6L954.8 576.6L1100 644.7Z" fill="#01213a" stroke="#01213a"></path><path d="M1100 644.7L954.8 576.6L949.8 648.7Z" fill="#297ea6" stroke="#297ea6"></path><path d="M605.1 1000L701.3 1000L637.1 922.9Z" fill="#01213a" stroke="#01213a"></path><path d="M135.2 632.7L153.2 801.8L225.4 674.7Z" fill="#124464" stroke="#124464"></path><path d="M218.4 790.8L231.4 900.9L389.7 755.8Z" fill="#08324f" stroke="#08324f"></path><path d="M1100 465.4L1100 372.3L965.8 472.4Z" fill="#0d3b59" stroke="#0d3b59"></path><path d="M520.9 0L356.7 0L481.9 123.1Z" fill="#164d6f" stroke="#164d6f"></path><path d="M153.2 801.8L231.4 900.9L218.4 790.8Z" fill="#164d6f" stroke="#164d6f"></path><path d="M1001.8 774.8L1100 644.7L949.8 648.7Z" fill="#1e6085" stroke="#1e6085"></path><path d="M231.4 900.9L389.7 1000L403.7 923.9Z" fill="#1e6085" stroke="#1e6085"></path><path d="M1012.8 87.1L835.6 0L837.6 121.1Z" fill="#226a90" stroke="#226a90"></path><path d="M1012.8 87.1L860.6 185.2L970.8 227.2Z" fill="#042944" stroke="#042944"></path><path d="M0 317.3L0 446.4L120.2 465.4Z" fill="#226a90" stroke="#226a90"></path><path d="M246.4 139.1L112.2 186.2L209.4 247.2Z" fill="#124464" stroke="#124464"></path><path d="M149.2 74.1L112.2 186.2L246.4 139.1Z" fill="#1a567a" stroke="#1a567a"></path><path d="M1100 372.3L1100 248.2L970.8 227.2Z" fill="#1e6085" stroke="#1e6085"></path><path d="M0 317.3L120.2 465.4L161.2 340.3Z" fill="#164d6f" stroke="#164d6f"></path><path d="M120.2 465.4L0 529.6L133.2 588.6Z" fill="#1e6085" stroke="#1e6085"></path><path d="M0 781.8L115.2 854.9L153.2 801.8Z" fill="#124464" stroke="#124464"></path><path d="M0 446.4L0 529.6L120.2 465.4Z" fill="#0d3b59" stroke="#0d3b59"></path><path d="M356.7 0L261.4 0L348.7 145.1Z" fill="#124464" stroke="#124464"></path><path d="M880.6 874.9L991.8 903.9L1001.8 774.8Z" fill="#0d3b59" stroke="#0d3b59"></path><path d="M1001.8 774.8L1100 800.8L1100 644.7Z" fill="#226a90" stroke="#226a90"></path><path d="M966.8 1000L991.8 903.9L880.6 874.9Z" fill="#124464" stroke="#124464"></path><path d="M701.3 1000L866.6 1000L771.3 901.9Z" fill="#164d6f" stroke="#164d6f"></path><path d="M1100 143.1L1012.8 87.1L970.8 227.2Z" fill="#25749b" stroke="#25749b"></path><path d="M153.2 801.8L115.2 854.9L231.4 900.9Z" fill="#297ea6" stroke="#297ea6"></path><path d="M231.4 900.9L227.4 1000L389.7 1000Z" fill="#1a567a" stroke="#1a567a"></path><path d="M0 692.7L153.2 801.8L135.2 632.7Z" fill="#0d3b59" stroke="#0d3b59"></path><path d="M261.4 0L149.2 74.1L246.4 139.1Z" fill="#0d3b59" stroke="#0d3b59"></path><path d="M112.2 186.2L0 317.3L161.2 340.3Z" fill="#042944" stroke="#042944"></path><path d="M0 218.2L0 317.3L112.2 186.2Z" fill="#0d3b59" stroke="#0d3b59"></path><path d="M1100 861.9L1100 800.8L1001.8 774.8Z" fill="#042944" stroke="#042944"></path><path d="M0 529.6L0 692.7L133.2 588.6Z" fill="#1e6085" stroke="#1e6085"></path><path d="M135.2 1000L227.4 1000L231.4 900.9Z" fill="#25749b" stroke="#25749b"></path><path d="M1100 248.2L1100 143.1L970.8 227.2Z" fill="#226a90" stroke="#226a90"></path><path d="M0 132.1L0 218.2L112.2 186.2Z" fill="#1e6085" stroke="#1e6085"></path><path d="M1100 1000L1100 861.9L991.8 903.9Z" fill="#25749b" stroke="#25749b"></path><path d="M991.8 903.9L1100 861.9L1001.8 774.8Z" fill="#08324f" stroke="#08324f"></path><path d="M866.6 1000L966.8 1000L880.6 874.9Z" fill="#1a567a" stroke="#1a567a"></path><path d="M0 692.7L0 781.8L153.2 801.8Z" fill="#08324f" stroke="#08324f"></path><path d="M115.2 854.9L135.2 1000L231.4 900.9Z" fill="#297ea6" stroke="#297ea6"></path><path d="M1100 0L1012.8 0L1012.8 87.1Z" fill="#124464" stroke="#124464"></path><path d="M1012.8 87.1L1012.8 0L835.6 0Z" fill="#226a90" stroke="#226a90"></path><path d="M261.4 0L137.2 0L149.2 74.1Z" fill="#08324f" stroke="#08324f"></path><path d="M149.2 74.1L0 132.1L112.2 186.2Z" fill="#164d6f" stroke="#164d6f"></path><path d="M0 913.9L135.2 1000L115.2 854.9Z" fill="#1a567a" stroke="#1a567a"></path><path d="M0 0L0 132.1L149.2 74.1Z" fill="#1a567a" stroke="#1a567a"></path><path d="M1100 143.1L1100 0L1012.8 87.1Z" fill="#164d6f" stroke="#164d6f"></path><path d="M0 781.8L0 913.9L115.2 854.9Z" fill="#297ea6" stroke="#297ea6"></path><path d="M966.8 1000L1100 1000L991.8 903.9Z" fill="#297ea6" stroke="#297ea6"></path><path d="M137.2 0L0 0L149.2 74.1Z" fill="#124464" stroke="#124464"></path><path d="M0 913.9L0 1000L135.2 1000Z" fill="#124464" stroke="#124464"></path></g></svg>